<svg xmlns="http://www.w3.org/2000/svg" width="678.196" height="77.054" viewBox="0 0 678.19599 77.054495"><g clip-rule="evenodd" fill="#e43217" fill-rule="evenodd"><path d="M88.298 0v15.814c-8.445 0-18.504 4.77-28.896 4.77-12.006 0-24.67-4.524-36.676-4.524-10.715 0-13.963 3.017-22.726 5.522V5.773C8.763 3.262 12.011.253 22.726.253c12.007 0 24.669 4.516 36.676 4.516C69.794 4.77 79.852 0 88.298 0zM88.298 27.609v15.813c-8.445 0-18.504 5.02-28.896 5.02-12.006 0-24.67-4.521-36.676-4.521-10.715 0-13.963 3.013-22.726 5.271v-15.81c8.763-2.258 12.011-5.27 22.726-5.27 12.007 0 24.669 4.514 36.676 4.514 10.392 0 20.45-5.017 28.896-5.017zM88.298 55.469v15.814c-8.445 0-18.504 4.77-28.896 4.77-12.006 0-24.67-4.269-36.676-4.269-10.715 0-13.963 3.012-22.726 5.27V61.246c8.763-2.26 12.011-5.27 22.726-5.27 12.007 0 24.669 4.264 36.676 4.264 10.392 0 20.45-4.77 28.896-4.77z"/></g><path d="M166.98 3.196l-20.241 49.5c-6.211 15.129-16.332 21.344-29.459 20.64v-15.03c7.314.7 11.322-2.005 14.028-6.915L108.863 3.196h16.033l13.726 30.66 12.326-30.66zM213.824 73.336V45.48H191.78v27.855h-16.033V3.196h16.033V30.05h22.044V3.196h16.031v70.14zM241.449 73.336V3.195h16.031v38.077l27.054-38.077h12.024v70.14h-16.033V35.26l-27.053 38.076zM344.324 51.592c0-3.906-2.606-6.713-6.613-6.713h-13.429v13.428h13.429c4.007 0 6.613-2.808 6.613-6.715zm-20.042-33.367V30.65h11.424c3.607 0 6.113-2.604 6.113-6.213 0-3.607-2.405-6.213-6.113-6.213zm36.072 34.572c0 12.422-10.119 20.539-22.644 20.539h-29.46V3.195h27.456c12.225 0 22.145 7.917 22.145 20.043 0 5.809-2.304 10.418-6.112 13.726 5.21 3.306 8.615 8.716 8.615 15.833zM368.447 73.336V3.195h43.586v15.433h-27.555V30.25h25.051v15.23h-25.051v12.427h28.055v15.429zM456.697 27.245c0-5.111-3.605-9.02-8.517-9.02h-10.521v18.037h10.521c4.912 0 8.517-3.907 8.517-9.017zm16.033 0c0 13.326-10.722 24.046-24.55 24.046h-10.521v22.045h-16.031V3.195h26.553c13.828 0 24.549 10.72 24.549 24.05zM477.74 38.265c0-20.64 15.332-36.472 36.473-36.472 12.725 0 23.949 6.312 30.062 16.232l-13.828 8.017c-3.104-5.413-9.117-8.618-16.233-8.618-12.423 0-20.439 8.315-20.439 20.84 0 12.527 8.017 20.844 20.439 20.844 7.116 0 13.228-3.205 16.233-8.617l13.828 8.016c-6.013 9.918-17.236 16.232-30.062 16.232-21.141 0-36.473-15.832-36.473-36.474zM588.093 47.284l-8.218-25.751-8.216 25.75zm4.808 15.03H566.85l-3.508 11.022h-17.535l23.849-70.142h20.441l23.847 70.142h-17.535zM618.074 58.307c7.214 1.102 11.624-1.102 11.624-12.828V3.195h48.498v70.142h-16.033v-54.71h-16.434v26.254c0 25.049-14.728 29.859-27.655 28.455z" fill="#00408c"/></svg>